<?xml version="1.0" standalone="no"?>
<!DOCTYPE svg PUBLIC "-//W3C//DTD SVG 20010904//EN"
 "http://www.w3.org/TR/2001/REC-SVG-20010904/DTD/svg10.dtd">
<svg version="1.0" xmlns="http://www.w3.org/2000/svg"
 width="880.000000pt" height="880.000000pt" viewBox="0 0 880.000000 880.000000"
 preserveAspectRatio="xMidYMid meet">
<metadata>
Created by potrace 1.14, written by Peter Selinger 2001-2017
</metadata>
<g transform="translate(0.000000,880.000000) scale(0.100000,-0.100000)"
fill="#000000" stroke="none">
<path d="M2106 7243 c-3 -3 -288 -7 -634 -8 -389 -2 -638 -6 -657 -13 -122
-41 -187 -80 -260 -159 -144 -153 -183 -374 -102 -568 11 -27 42 -85 69 -127
26 -43 48 -82 48 -88 0 -5 5 -10 10 -10 6 0 10 -4 10 -9 0 -5 52 -95 115 -199
63 -105 115 -195 115 -200 0 -6 4 -12 8 -14 9 -4 455 -746 460 -765 2 -7 8
-13 13 -13 5 0 9 -4 9 -9 0 -12 211 -364 223 -372 5 -3 8 -9 8 -13 -1 -3 5
-16 13 -29 30 -47 200 -333 213 -357 8 -14 65 -110 128 -214 63 -104 115 -192
115 -197 0 -5 5 -9 10 -9 6 0 10 -4 10 -9 0 -5 167 -287 372 -627 204 -341
379 -632 388 -649 33 -57 103 -170 133 -215 150 -220 452 -290 696 -160 80 43
156 120 216 221 27 46 52 86 56 89 3 3 8 10 10 15 4 10 81 139 127 214 12 20
32 54 43 76 12 22 25 42 29 45 4 3 10 15 14 28 4 12 12 22 17 22 5 0 9 4 9 10
0 5 16 34 35 64 19 30 35 58 35 62 0 4 11 22 25 40 14 18 25 35 25 37 0 3 18
34 40 68 22 35 47 79 56 97 18 35 33 37 49 6 6 -11 21 -37 35 -59 43 -69 60
-99 66 -117 4 -10 10 -18 15 -18 5 0 9 -7 9 -15 0 -8 4 -15 9 -15 5 0 11 -8
14 -17 4 -10 17 -36 30 -58 13 -22 71 -116 127 -210 57 -93 110 -183 120 -200
111 -193 175 -283 242 -335 224 -178 566 -145 738 71 45 56 90 126 90 139 0 5
4 10 8 10 5 0 16 15 25 33 28 53 167 288 177 297 3 3 12 19 21 35 23 45 43 79
49 85 11 10 80 132 80 141 0 5 4 9 9 9 5 0 12 11 15 25 4 14 10 25 15 25 4 0
16 18 26 40 10 22 22 40 27 40 4 0 8 5 8 12 0 7 11 28 24 47 23 35 159 262
199 331 11 19 28 49 38 65 11 17 22 37 26 45 4 8 11 20 16 25 9 11 92 149 135
225 14 25 29 47 34 48 4 2 8 9 8 15 0 6 11 27 23 46 48 73 147 242 147 250 0
5 4 11 8 13 5 2 22 26 38 55 16 28 58 100 94 160 36 59 67 113 69 118 2 6 7
12 11 15 5 4 41 64 125 208 6 9 31 52 58 95 26 43 47 82 47 87 0 6 5 10 10 10
6 0 10 5 10 11 0 6 14 30 30 54 17 24 30 48 30 54 0 6 5 11 10 11 6 0 10 5 10
11 0 6 36 69 80 141 44 71 80 134 80 139 0 5 3 9 8 9 4 0 14 15 21 33 8 17 22
43 31 57 48 72 231 376 274 455 6 11 21 34 34 52 12 17 22 34 22 37 0 4 8 19
19 34 54 78 180 304 195 349 39 119 40 233 0 348 -52 155 -185 285 -344 337
-69 22 -60 22 -1695 27 -33 1 -148 0 -255 0 -107 0 -199 0 -205 1 -5 1 -14 1
-20 0 -9 -2 -113 -2 -480 -1 -33 1 -148 0 -255 0 -107 0 -199 0 -205 1 -5 1
-14 1 -20 0 -9 -2 -113 -2 -480 -1 -33 1 -148 0 -255 0 -107 0 -199 0 -205 1
-5 1 -14 1 -20 0 -23 -5 -1754 -2 -1763 4 -5 3 -12 3 -16 -1z"/>
</g>
</svg>
